<svg xmlns="http://www.w3.org/2000/svg" width="20" height="24" viewBox="0 0 20 24">
  <g id="Vector_Smart_Object1" data-name="Vector Smart Object1" transform="translate(-464.375 -430.737)">
    <g id="Group_2" data-name="Group 2">
      <path id="Path_8" data-name="Path 8" d="M474.375,443.368a6.316,6.316,0,1,1,6.25-6.316A6.29,6.29,0,0,1,474.375,443.368Zm0-10.105a3.79,3.79,0,1,0,3.75,3.789A3.774,3.774,0,0,0,474.375,433.263Z" fill="#ec1f2e"/>
    </g>
    <g id="Group_4" data-name="Group 4">
      <g id="Group_3" data-name="Group 3">
        <path id="Path_9" data-name="Path 9" d="M484.375,454.737h-20v-2.526c0-4.463,4.113-7.579,10-7.579s10,3.116,10,7.579Zm-17.5-2.526h15c0-2.976-3.084-5.053-7.5-5.053S466.875,449.235,466.875,452.211Z" fill="#ec1f2e"/>
      </g>
    </g>
  </g>
</svg>
